<svg xmlns="http://www.w3.org/2000/svg" width="80.124" height="80.125" viewBox="0 0 80.124 80.125"><defs><style>.a{fill:#f9ba48;}.b{fill:#333;}</style></defs><g transform="translate(-0.001)"><g transform="translate(0.001)"><circle class="a" cx="24.554" cy="24.554" r="24.554" transform="translate(15.508 15.508)"/><path class="b" d="M40.063,0A40.129,40.129,0,0,0,12.018,11.467l-1.7-9.12-2.541.476,2.338,12.525,13.006,1.445.286-2.568-9.434-1.048A37.458,37.458,0,1,1,64.617,68.339V65.909a2.874,2.874,0,0,1-2.585-1.6L61.5,63.249a3.877,3.877,0,0,0-.761-7.679H55.571V68.493h2.585V62.336l1.565,3.13a5.434,5.434,0,0,0,4.733,3.015A37.462,37.462,0,0,1,4.312,28.819l-2.466-.776A40.062,40.062,0,1,0,40.063,0ZM58.156,60.74V58.155H60.74a1.292,1.292,0,0,1,0,2.585H58.156Z" transform="translate(-0.001)"/><path class="b" d="M15.692,78.7l-2.285-1.208c-.5.951-.928,1.826-1.3,2.67L14.477,81.2C14.824,80.415,15.219,79.6,15.692,78.7Z" transform="translate(-8.772 -56.129)"/><path class="b" d="M60.9,87.745,45.221,97.156a6.243,6.243,0,0,0,3.211,11.6H70.62v-2.584H48.432a3.658,3.658,0,0,1-1.882-6.8l15.685-9.412A17.357,17.357,0,0,0,70.62,75.153a14.215,14.215,0,1,0-28.431,0v2.585h2.585V75.153a11.631,11.631,0,1,1,23.262,0A14.755,14.755,0,0,1,60.9,87.745Z" transform="translate(-30.558 -44.137)"/><path class="b" d="M170.034,59.916l-2.259-1.256L155.238,81.225a4.372,4.372,0,0,0,3.823,6.494h12.428v7.754h2.584V87.719H185.7V85.135H174.074V59.288h-2.585V85.135H159.061A1.787,1.787,0,0,1,157.5,82.48Z" transform="translate(-112.042 -42.488)"/><path class="b" d="M154.688,214.486h2.585v-5.169h5.169v5.169h2.585V201.563h-2.585v5.169h-5.169v-5.169h-2.585Z" transform="translate(-112.041 -145.993)"/></g></g></svg>