<svg xmlns="http://www.w3.org/2000/svg" width="39.947" height="40.865" viewBox="0 0 39.947 40.865"><defs><style>.a{opacity:0.75;}</style></defs><g class="a" transform="translate(0 0)"><g transform="translate(0 0)"><g transform="translate(0)"><g transform="translate(4.565 10.724)"><path d="M61.064,92.4H43.352a.887.887,0,0,1,0-1.775H61.064a.887.887,0,0,1,0,1.775Z" transform="translate(-42.465 -90.629)"/></g><g transform="translate(4.565 14.701)"><path d="M56.836,126.021H43.352a.887.887,0,0,1,0-1.775H56.836a.887.887,0,1,1,0,1.775Z" transform="translate(-42.465 -124.246)"/></g><g transform="translate(4.565 26.634)"><path d="M47.815,226.871H43.352a.887.887,0,1,1,0-1.775h4.463a.887.887,0,1,1,0,1.775Z" transform="translate(-42.465 -225.096)"/></g><g transform="translate(4.565 30.612)"><path d="M45.881,260.488H43.352a.887.887,0,0,1,0-1.775h2.528a.887.887,0,0,1,0,1.775Z" transform="translate(-42.465 -258.713)"/></g><path d="M42.873,4.116,40.849,2.606a2.38,2.38,0,0,0-3.33.485h0L32.5,9.893V3.139a.887.887,0,0,0-.887-.887H27.935V.887a.887.887,0,1,0-1.775,0V2.252H23.507V.887a.887.887,0,0,0-1.775,0V2.252H19.079V.887a.887.887,0,1,0-1.775,0V2.252H14.651V.887a.887.887,0,0,0-1.775,0V2.252H10.223V.887a.887.887,0,1,0-1.775,0V2.252H4.77a.887.887,0,0,0-.887.887V39.978a.887.887,0,0,0,.887.887H31.612a.887.887,0,0,0,.887-.887V22.261L43.358,7.447h0A2.383,2.383,0,0,0,42.873,4.116ZM30.725,39.091H5.658V4.026h2.79V5.39a.887.887,0,1,0,1.775,0V4.026h2.653V5.39a.887.887,0,0,0,1.775,0V4.026H17.3V5.39a.887.887,0,0,0,1.775,0V4.026h2.653V5.39a.887.887,0,1,0,1.775,0V4.026H26.16V5.39a.887.887,0,1,0,1.775,0V4.026h2.79v8.3L26.1,18.679H9.336a.887.887,0,1,0,0,1.775H24.8l-5.047,6.925h0a.883.883,0,0,0-.132.269L17.6,34.59H9.336a.887.887,0,1,0,0,1.775h8.94a.885.885,0,0,0,.468-.141l6.633-4.287a.887.887,0,0,0,.229-.215l5.12-7.025V39.091Zm-9.754-9.719,2.369,1.767-3.558,2.3Zm3.735.571L21.711,27.71l14-19.2L38.7,10.738ZM39.755,9.309,36.761,7.077,37.716,5.8,40.71,8.028Zm2.181-2.924h0l-.164.219L38.777,4.372l.164-.219h0a.6.6,0,0,1,.846-.123l2.024,1.509A.606.606,0,0,1,41.936,6.385Z" transform="translate(-3.883)"/></g></g></g></svg>