<svg xmlns="http://www.w3.org/2000/svg" width="34.662" height="34.662" viewBox="0 0 34.662 34.662"><defs><style>.a{fill:#f9ba48;}.b{fill:#333;}</style></defs><circle class="a" cx="12.299" cy="12.299" r="12.299" transform="translate(5.032 5.032)"/><path class="b" d="M13.977,25.717a1.679,1.679,0,0,0,1.677-1.677V1.677A1.679,1.679,0,0,0,13.977,0H1.677A1.679,1.679,0,0,0,0,1.677V24.04a1.679,1.679,0,0,0,1.677,1.677h12.3Zm.559-5.591H1.118V4.473H14.536ZM1.677,1.118h12.3a.56.56,0,0,1,.559.559V3.355H1.118V1.677A.56.56,0,0,1,1.677,1.118ZM1.118,24.04v-2.8H14.536v2.8a.56.56,0,0,1-.559.559H1.677A.56.56,0,0,1,1.118,24.04Z"/><path class="b" d="M51.563,179.8a1.677,1.677,0,1,0,1.677-1.677A1.679,1.679,0,0,0,51.563,179.8Zm1.677-.559a.559.559,0,1,1-.559.559A.56.56,0,0,1,53.24,179.243Z" transform="translate(-45.413 -156.88)"/><rect class="b" width="3.354" height="1.118" transform="translate(7.268 1.677)"/><rect class="b" width="1.118" height="1.118" transform="translate(5.032 1.677)"/><path class="b" d="M173.352,75h-12.3a1.679,1.679,0,0,0-1.677,1.677V99.04a1.679,1.679,0,0,0,1.677,1.677h12.3a1.679,1.679,0,0,0,1.677-1.677V76.677A1.679,1.679,0,0,0,173.352,75Zm-12.3,1.118h12.3a.56.56,0,0,1,.559.559v1.677H160.493V76.677A.56.56,0,0,1,161.052,76.118Zm12.858,3.354V95.126H160.493V79.473ZM173.352,99.6h-12.3a.56.56,0,0,1-.559-.559v-2.8h13.418v2.8A.56.56,0,0,1,173.352,99.6Z" transform="translate(-140.367 -66.055)"/><path class="b" d="M214.292,254.8a1.677,1.677,0,1,0-1.677,1.677A1.679,1.679,0,0,0,214.292,254.8Zm-1.677.559a.559.559,0,1,1,.559-.559A.56.56,0,0,1,212.614,255.361Z" transform="translate(-185.779 -222.935)"/><rect class="b" width="3.354" height="1.118" transform="translate(26.276 10.622)"/><rect class="b" width="1.118" height="1.118" transform="translate(24.04 10.622)"/><path class="b" d="M192.188,144.883v.559a.559.559,0,0,0,.559.559h6.709a.559.559,0,0,0,.559-.559v-.559a3.917,3.917,0,0,0-2.617-3.688,2.8,2.8,0,1,0-2.593,0A3.917,3.917,0,0,0,192.188,144.883Zm3.913-7.827a1.677,1.677,0,1,1-1.677,1.677A1.679,1.679,0,0,1,196.1,137.056Zm0,5.032a2.8,2.8,0,0,1,2.8,2.8h-5.591A2.8,2.8,0,0,1,196.1,142.088Z" transform="translate(-169.266 -119.725)"/><path class="b" d="M32.813,69.883v.559a.559.559,0,0,0,.559.559h6.709a.559.559,0,0,0,.559-.559v-.559a3.917,3.917,0,0,0-2.617-3.688,2.8,2.8,0,1,0-2.593,0A3.917,3.917,0,0,0,32.813,69.883Zm3.913-7.827a1.677,1.677,0,1,1-1.677,1.677A1.679,1.679,0,0,1,36.726,62.056Zm0,5.032a2.8,2.8,0,0,1,2.8,2.8H33.931A2.8,2.8,0,0,1,36.726,67.088Z" transform="translate(-28.899 -53.67)"/><path class="b" d="M155.72,7.827h1.118A7.836,7.836,0,0,0,149.011,0h-8.386V1.118h8.386A6.716,6.716,0,0,1,155.72,7.827Z" transform="translate(-123.853)"/><path class="b" d="M15.181,225H14.063a7.836,7.836,0,0,0,7.827,7.827h8.386v-1.118H21.89A6.716,6.716,0,0,1,15.181,225Z" transform="translate(-12.386 -198.165)"/></svg>