<svg xmlns="http://www.w3.org/2000/svg" width="21.02" height="32.647" viewBox="0 0 21.02 32.647"><defs><style>.a{opacity:0.7;}</style></defs><g class="a" transform="translate(-52.501)"><path d="M162.2,210.005a4.7,4.7,0,1,0,4.7,4.7A4.7,4.7,0,0,0,162.2,210.005Zm0,8.065a3.368,3.368,0,1,1,3.368-3.368A3.372,3.372,0,0,1,162.2,218.07Z" transform="translate(-93.376 -186.752)"/><path d="M124.231,12.132a.662.662,0,0,0,.47-.195l3.962-3.962a4.689,4.689,0,1,0-.793-1.086L123.762,11a.664.664,0,0,0,.47,1.134Zm7.79-10.8A3.368,3.368,0,1,1,128.653,4.7,3.372,3.372,0,0,1,132.021,1.329Z" transform="translate(-63.197)"/><path d="M64.172,117.174l-3.916-3.916a4.687,4.687,0,1,0-1.149.73l4.126,4.125a.664.664,0,0,0,.94-.94ZM53.83,109.7a3.368,3.368,0,1,1,3.368,3.368A3.372,3.372,0,0,1,53.83,109.7Z" transform="translate(0 -93.375)"/></g></svg>