<svg xmlns="http://www.w3.org/2000/svg" width="24.49" height="23.495" viewBox="0 0 24.49 23.495"><defs><style>.a{opacity:0.7;}</style></defs><g class="a" transform="translate(0 -5.984)"><path d="M.5,8.873a.5.5,0,0,0,.5-.5A1.4,1.4,0,0,1,2.391,6.981H6.849l3.509,3.833a.5.5,0,0,0,.368.162H22.1a1.4,1.4,0,0,1,1.394,1.394.5.5,0,1,0,1,0A2.394,2.394,0,0,0,22.1,9.979H10.945L7.436,6.146a.5.5,0,0,0-.368-.162H2.391A2.394,2.394,0,0,0,0,8.375.5.5,0,0,0,.5,8.873Z"/><path d="M22.1,50H10.945L7.436,46.17a.5.5,0,0,0-.368-.162H2.391A2.394,2.394,0,0,0,0,48.4v9.853a.5.5,0,1,0,1,0V48.4A1.4,1.4,0,0,1,2.391,47H6.849l3.509,3.833a.5.5,0,0,0,.368.162H22.1a1.4,1.4,0,0,1,1.394,1.394V63.788A1.4,1.4,0,0,1,22.1,65.182H2.391A1.4,1.4,0,0,1,1,63.788a.5.5,0,1,0-1,0,2.394,2.394,0,0,0,2.391,2.391H22.1a2.394,2.394,0,0,0,2.391-2.391V52.394A2.394,2.394,0,0,0,22.1,50Z" transform="translate(0 -36.7)"/></g></svg>