<svg xmlns="http://www.w3.org/2000/svg" width="22.768" height="26.64" viewBox="0 0 22.768 26.64"><defs><style>.a{opacity:0.7;}</style></defs><path class="a" d="M40.132,13.212a.645.645,0,0,0-.645.645V25.35H32.565V18.135a.645.645,0,0,0-.645-.645H26.867a.645.645,0,0,0-.645.645v5.72a.645.645,0,0,0,1.29,0V18.78h3.763V25.35H19.3V9.56L29.394,1.471,39.729,9.754a.645.645,0,0,0,.807-1.007L29.8.141a.645.645,0,0,0-.807,0L18.252,8.747a.645.645,0,0,0-.242.5V25.995a.645.645,0,0,0,.645.645H40.132a.645.645,0,0,0,.645-.645V13.857A.645.645,0,0,0,40.132,13.212Z" transform="translate(-18.01 0)"/></svg>