<svg xmlns="http://www.w3.org/2000/svg" width="29.912" height="27.443" viewBox="0 0 29.912 27.443"><g transform="translate(0 0)"><path d="M258.626,30.749h0l4.052.008a10.035,10.035,0,0,1,3.742.9l3.819,0h.1a2.946,2.946,0,0,1,2.377.964,3.379,3.379,0,0,1,.7,2.213l.04,11.963a3.729,3.729,0,0,1-.538,2.225,2.368,2.368,0,0,1-1.755,1.112c-.683.068-1.719.1-2.2.12l-1.992,4.987a3.407,3.407,0,0,1-1.052,2.4,2.414,2.414,0,0,1-1.566.55,2.223,2.223,0,0,1-.522-.056,2.739,2.739,0,0,1-1.879-1.393,4.85,4.85,0,0,1-.382-2.859,9.036,9.036,0,0,1,.434-1.907c.269-.695.554-1.506.683-1.964l-6.084,0a2.635,2.635,0,0,1-2.124-1.08,3.842,3.842,0,0,1-.739-2.313v-.028l0-.028,1.687-12.665C255.67,31.926,256.863,30.749,258.626,30.749Zm4.048.8-4.048-.008c-1.341,0-2.217.891-2.4,2.45v0l-1.683,12.641c.008,1.253.735,2.574,2.064,2.574l6.513,0a.422.422,0,0,1,.349.185c.137.2.149.414-.285,1.671-.2.6-.434,1.181-.434,1.189-.245.651-.791,2.807-.1,4.108a1.953,1.953,0,0,0,1.365,1l.016,0a1.421,1.421,0,0,0,.321.032c.751,0,1.678-.4,1.831-2.281l0-.06,2.233-5.586.261,0c.016,0,1.534-.036,2.4-.124,1-.1,1.658-1.157,1.582-2.514v-.02l-.04-11.975a2.632,2.632,0,0,0-.51-1.7,2.228,2.228,0,0,0-1.859-.679h-.008l-4.024,0-.088-.048A9.068,9.068,0,0,0,262.674,31.552Z" transform="translate(-253.743 -30.749)"/><path d="M2.016,213.05H5.975A2.024,2.024,0,0,1,8,215.07v15.4a2.024,2.024,0,0,1-2.02,2.02H2.02A2.024,2.024,0,0,1,0,230.474V215.066A2.017,2.017,0,0,1,2.016,213.05ZM5.975,231.7A1.227,1.227,0,0,0,7.2,230.474V215.066a1.227,1.227,0,0,0-1.225-1.225H2.02A1.227,1.227,0,0,0,.8,215.066v15.408a1.235,1.235,0,0,0,.357.867,1.209,1.209,0,0,0,.863.357Z" transform="translate(21.917 -212.371)"/><path d="M55.351,548.749A1.851,1.851,0,1,1,53.5,550.6,1.854,1.854,0,0,1,55.351,548.749Zm0,2.907A1.056,1.056,0,1,0,54.3,550.6,1.057,1.057,0,0,0,55.351,551.656Z" transform="translate(-29.439 -545.81)"/></g></svg>