<svg xmlns="http://www.w3.org/2000/svg" width="20.996" height="27.288" viewBox="0 0 20.996 27.288"><defs><style>.a{opacity:0.7;}</style></defs><g class="a" transform="translate(-31.799)"><path d="M96.66,2.07l-9.413,9.413a.593.593,0,0,0-.155.27l-.808,3.112a.594.594,0,0,0,.724.724l3.112-.808a.594.594,0,0,0,.27-.155L99.8,5.213h0l1.9-1.9a.593.593,0,0,0,0-.839L99.4.174a.593.593,0,0,0-.839,0L96.661,2.069h0Zm-7,11.6-1.978.514.514-1.978,8.88-8.88,1.464,1.464Zm9.311-12.24L100.44,2.9,99.384,3.953,97.919,2.489Z" transform="translate(-49.077 0)"/><path d="M52.2,26.632a.594.594,0,0,0-.594.594V46.3H32.986V23.6H43.973a.594.594,0,1,0,0-1.187H32.393a.594.594,0,0,0-.594.594V46.893a.594.594,0,0,0,.594.594H52.2a.594.594,0,0,0,.594-.594V27.225A.594.594,0,0,0,52.2,26.632Z" transform="translate(0 -20.199)"/></g></svg>