<svg xmlns="http://www.w3.org/2000/svg" width="41.411" height="33" viewBox="0 0 41.411 33"><defs><style>.a{opacity:0.45;}</style></defs><g class="a"><g transform="translate(0 0)"><path d="M.8,197.8H1.972a.8.8,0,1,1,0,1.61H.8a.8.8,0,1,1,0-1.61Z" transform="translate(38.634 -182.105)"/><path d="M47.841,57.737l15.7-15.7a.8.8,0,0,1,1.127,1.127L50.337,57.5H83.417a.8.8,0,1,1,0,1.61H50.337L64.663,73.432a.778.778,0,0,1,0,1.127.778.778,0,0,1-1.127,0l-15.7-15.7A.778.778,0,0,1,47.841,57.737Z" transform="translate(-47.6 -41.8)"/></g></g></svg>