<svg xmlns="http://www.w3.org/2000/svg" width="37.757" height="37.757" viewBox="0 0 37.757 37.757"><defs><style>.a{opacity:0.75;}</style></defs><g class="a" transform="translate(0 0)"><g transform="translate(30.929 0)"><path d="M420.006,0a.6.6,0,0,0-.6.6V37.154a.6.6,0,0,0,1.2,0V.6A.6.6,0,0,0,420.006,0Z" transform="translate(-419.404)"/></g><g transform="translate(0 0)"><path d="M26.711,0H.6A.6.6,0,0,0,0,.6V37.154a.6.6,0,0,0,.6.6H19.481a.6.6,0,0,0,.426-.176l7.23-7.23a.6.6,0,0,0,.176-.426V.6A.6.6,0,0,0,26.711,0ZM20.083,35.7V30.527h5.173Zm6.025-6.378H19.481a.6.6,0,0,0-.6.6v6.628H1.2V1.2h24.9V29.322Z"/></g><g transform="translate(22.287 0)"><path d="M309.052,0a.6.6,0,0,0-.6.6V36.552H302.82a.6.6,0,1,0,0,1.2h6.232a.6.6,0,0,0,.6-.6V.6A.6.6,0,0,0,309.052,0Z" transform="translate(-302.218)"/></g><g transform="translate(33.339 0)"><path d="M455.9,0h-3.213a.6.6,0,0,0-.6.6V32.334a.6.6,0,0,0,.031.19l1.607,4.82a.6.6,0,0,0,1.143,0l1.607-4.82a.6.6,0,0,0,.031-.191V.6A.6.6,0,0,0,455.9,0Zm-1.607,35.249-.771-2.312h1.542Zm1-3.517h-2.008V7.632H455.3Zm0-25.305h-2.008V4.418H455.3Zm0-3.213h-2.008V1.2H455.3Z" transform="translate(-452.086)"/></g></g></svg>