-<svg xmlns="http://www.w3.org/2000/svg" width="37.952" height="38.076" viewBox="0 0 37.952 38.076"><defs><style>.a{opacity:0.75;}</style></defs><g class="a" transform="translate(0 0)"><g transform="translate(0 0)"><g transform="translate(0 0)"><path d="M37.5,23.373a.591.591,0,1,0-1.082.477l.806,1.829L32.071,27.95l2.815-7.575.42.953a.591.591,0,1,0,1.082-.477l-.911-2.067,2.639-7.1a.591.591,0,0,0-.348-.76l-2.6-.966,1.17-1.794a1.853,1.853,0,0,0,1.9-3.066L33.781.636a1.853,1.853,0,0,0-3.065,1.9L28.852,3.755l-1.5-3.4a.6.6,0,0,0-.779-.3L18.31,3.691,11.757,1.256A.6.6,0,0,0,11,1.6l-2.36,6.35L1.182,11.241a.6.6,0,0,0-.3.78l3.39,7.69-2.937,7.9a.6.6,0,0,0,.348.76l2.882,1.071a.591.591,0,0,0,.412-1.108l-2.327-.865L11.9,2.57,23.857,7.013l-1.469.958-.2-.2a1.855,1.855,0,0,0-2.62,0l-.892.892a.6.6,0,0,0,0,.836l4.041,4.041-6.271,6.271a.589.589,0,0,0-.1.131l-2.23,4.013a.591.591,0,0,0,.8.8l4.013-2.23a.6.6,0,0,0,.131-.1L21.794,19.7l6.439,2.393a.591.591,0,0,0,.412-1.108l-5.931-2.2,2.623-2.623L29.378,20.2a.6.6,0,0,0,.836,0l.892-.892a1.855,1.855,0,0,0,0-2.62l-.2-.2,3.6-5.519,2.3.853-9.253,24.9L7.5,29.275a.591.591,0,1,0-.412,1.108l2.258.839,2.728,6.189a.6.6,0,0,0,.78.3L19.238,34.9l8.454,3.141a.6.6,0,0,0,.76-.348L31.5,29.5l6.745-2.973a.6.6,0,0,0,.3-.78ZM4.86,18.12,2.2,12.085,8.063,9.5ZM32,1.472a.671.671,0,0,1,.948,0L37.4,5.931a.67.67,0,0,1-.895.995c-.019-.015-4.544-4.54-4.559-4.559A.667.667,0,0,1,32,1.472ZM19.9,4.282l6.608-2.913,1.34,3.04-2.76,1.8ZM21.226,18.6l-2.938,2.938L16.156,22.72l1.185-2.132,6.212-6.212.948.948Zm8.825-2.964-.9-.9a.591.591,0,0,0-.836.836l1.955,1.955a.671.671,0,0,1,0,.947l-.474.474L19.93,9.08l.474-.474a.671.671,0,0,1,.948,0l5.071,5.071a.591.591,0,1,0,.836-.836L23.242,8.825,31.407,3.5l3.969,3.969ZM12.915,36.393l-2.026-4.6,6.759,2.511Z" transform="translate(-0.83 0)"/></g></g><g transform="translate(12.222 10.07)"><path d="M173.5,138.239l-7.52-2.794a.591.591,0,1,0-.412,1.108l7.52,2.794a.591.591,0,0,0,.412-1.108Z" transform="translate(-165.187 -135.407)"/></g><g transform="translate(10.465 14.799)"><path d="M146.494,200.574l-4.138-1.538a.591.591,0,1,0-.412,1.108l4.138,1.538a.591.591,0,0,0,.412-1.108Z" transform="translate(-141.559 -199)"/></g><g transform="translate(8.708 19.528)"><path d="M122.826,264.155l-4.1-1.523a.591.591,0,0,0-.412,1.108l4.1,1.522a.591.591,0,0,0,.412-1.108Z" transform="translate(-117.931 -262.595)"/></g><g transform="translate(6.951 24.257)"><path d="M111.65,332.375,95.1,326.224a.591.591,0,0,0-.412,1.108l16.552,6.15a.591.591,0,0,0,.412-1.108Z" transform="translate(-94.301 -326.187)"/></g><g transform="translate(19.349 23.482)"><path d="M263.587,316.453l-1.773-.659a.591.591,0,0,0-.412,1.108l1.774.659a.591.591,0,0,0,.412-1.108Z" transform="translate(-261.016 -315.757)"/></g><g transform="translate(22.896 24.799)"><path d="M311.873,334.394l-2.365-.879a.591.591,0,0,0-.412,1.108l2.365.879a.591.591,0,0,0,.412-1.108Z" transform="translate(-308.711 -333.478)"/></g></g></svg>