<svg xmlns="http://www.w3.org/2000/svg" width="80.074" height="81.387" viewBox="0 0 80.074 81.387"><defs><style>.a{fill:#333;}.b{fill:#f9ba48;}</style></defs><g transform="translate(-2.343)"><g transform="translate(2.343)"><path class="a" d="M75.854,0H39.1a6.571,6.571,0,0,0-6.564,6.564V19.69H35.16V13.127H79.792v51.2H35.16V60.384H52.225V57.758H49.6V53.82H46.974V40.693H49.6V34.13H36.473v6.564H39.1V53.82H36.473v3.938H33.848V53.82H31.222V40.693h2.625V34.13H20.721v6.564h2.625V53.82H20.721v3.938H18.1V53.82H15.47V40.693H18.1V34.13H4.968v6.564H7.594V53.82H4.968v3.938H2.343v2.625H32.535v14.44A6.571,6.571,0,0,0,39.1,81.387H75.854a6.571,6.571,0,0,0,6.564-6.564V6.564A6.572,6.572,0,0,0,75.854,0ZM39.1,36.755h7.876v1.313H39.1Zm2.625,3.938h2.625V53.82H41.724ZM39.1,56.446h7.876v1.313H39.1Zm-31.5-19.69H15.47v1.313H7.594Zm2.625,3.938h2.625V53.82H10.219S10.219,40.694,10.219,40.694ZM7.594,57.758V56.445H15.47v1.313ZM35.16,10.5V6.564A3.943,3.943,0,0,1,39.1,2.625H75.854a3.943,3.943,0,0,1,3.938,3.938V10.5ZM23.346,36.755h7.876v1.313H23.346Zm2.625,3.938H28.6V53.82H25.971ZM23.346,57.758V56.445h7.876v1.313Zm52.508,21H39.1a3.943,3.943,0,0,1-3.938-3.938V66.947H79.792v7.876A3.943,3.943,0,0,1,75.854,78.761Z" transform="translate(-2.343)"/><path class="b" d="M37.408,51.563l-21,11.814H58.411Zm0,10.5a3.938,3.938,0,1,1,3.938-3.938A3.938,3.938,0,0,1,37.408,62.065Z" transform="translate(-12.467 -37.123)"/><path class="a" d="M56.349,93.75H11.718v6.564H56.349Zm-2.625,3.938H14.343V96.375H53.724Z" transform="translate(-9.093 -67.496)"/><rect class="a" width="10.502" height="2.625" transform="translate(53.82 5.251)"/><rect class="a" width="2.625" height="2.625" transform="translate(45.944 5.251)"/><path class="a" d="M187.406,243.75A4.594,4.594,0,1,0,192,248.344,4.6,4.6,0,0,0,187.406,243.75Zm0,6.564a1.969,1.969,0,1,1,1.969-1.969A1.971,1.971,0,0,1,187.406,250.314Z" transform="translate(-132.273 -175.49)"/><path class="a" d="M83.157,61.5a5.251,5.251,0,1,0-5.251,5.251A5.256,5.256,0,0,0,83.157,61.5Zm-5.251,2.625A2.625,2.625,0,1,1,80.531,61.5,2.628,2.628,0,0,1,77.906,64.126Z" transform="translate(-52.965 -40.498)"/></g></g></svg>