<svg xmlns="http://www.w3.org/2000/svg" width="21.827" height="26.727" viewBox="0 0 21.827 26.727"><defs><style>.a{opacity:0.7;}</style></defs><g class="a" transform="translate(-46.933)"><g transform="translate(46.933)"><g transform="translate(0)"><path d="M167.328,429.341h.818a.927.927,0,0,0,.927-.927V427.6a.927.927,0,0,0-.927-.927h-.818a.927.927,0,0,0-.927.927v.818A.927.927,0,0,0,167.328,429.341Zm-.037-1.745a.036.036,0,0,1,.037-.037h.818a.036.036,0,0,1,.037.037v.818a.036.036,0,0,1-.037.037h-.818a.036.036,0,0,1-.037-.037Z" transform="translate(-160.165 -404.395)"/><path d="M68.76,7.119c0-.009,0-.018,0-.027s0-.012,0-.018,0-.017,0-.025l0-.019c0-.007,0-.015-.006-.022l-.006-.021-.007-.019-.01-.023-.008-.016L68.7,6.905l0-.007-.006-.008-.014-.021-.012-.016-.014-.016-.016-.018-.013-.013L68.6,6.788l-.014-.011-.02-.015-.016-.011-.019-.012-.02-.01L68.5,6.721l-.023-.009-.017-.006L68.433,6.7l-.018,0-.023,0-.021,0-.021,0H62.078V2.037A2.037,2.037,0,0,0,60.041,0H48.97a2.037,2.037,0,0,0-2.037,2.037V24.962A1.765,1.765,0,0,0,48.7,26.727H60.314a1.765,1.765,0,0,0,1.765-1.765V16.482h6.236a.445.445,0,0,0,.445-.445V7.127S68.76,7.122,68.76,7.119Zm-7.127,3.5L56.559,7.573H66.707Zm-.445,14.345a.874.874,0,0,1-.874.874H48.7a.874.874,0,0,1-.874-.874V21.827H61.188v3.135Zm0-4.026H47.824V3.564h3.118a.445.445,0,0,0,0-.891H47.824V2.037A1.147,1.147,0,0,1,48.97.891h11.07a1.147,1.147,0,0,1,1.147,1.147V6.682H54.916l-.021,0-.021,0-.023,0-.018,0-.024.007-.017.006-.023.009-.018.008-.02.01-.019.012-.016.011-.02.015-.014.011-.019.017-.013.013-.016.017-.014.017-.012.016-.014.021-.006.008,0,.007-.013.024-.008.016-.01.023-.007.018-.006.022-.006.022,0,.019c0,.008,0,.017,0,.025s0,.012,0,.018,0,.018,0,.027,0,.005,0,.008v8.909a.445.445,0,0,0,.445.445h6.236Zm.445-5.345H55.4V7.914l6.007,3.6h0l.038.02h0l.037.015.04.012h0l.034.007.008,0,.029,0h.074l.029,0,.009,0,.034-.007h0l.038-.012.039-.016h0l.038-.02h0l6.007-3.6v7.677Z" transform="translate(-46.933)"/></g></g></g></svg>