<svg xmlns="http://www.w3.org/2000/svg" width="83.239" height="83.239" viewBox="0 0 83.239 83.239"><defs><style>.a{fill:#f9ba48;}.b{fill:#333;}</style></defs><g transform="translate(-0.001)"><g transform="translate(0.001)"><path class="a" d="M126.978,26.851H113.553V19.118a10.741,10.741,0,1,1,13.425,0v7.733Z" transform="translate(-78.646)"/><path class="b" d="M135.158,37.235h-6.713V31.618a4.028,4.028,0,1,0-2.685,0v5.617h-6.713V39.92h16.111V37.235ZM127.1,26.494a1.343,1.343,0,1,1-1.343,1.343A1.344,1.344,0,0,1,127.1,26.494Z" transform="translate(-85.483 -17.096)"/><path class="b" d="M108.135,205.516l-1.455,2.258a15.413,15.413,0,0,1,7.1,13v7.356H97.1l9.787-16.777L104.566,210,96.33,224.12,88.092,210,85.77,211.35l9.789,16.777H78.876v-7.356a15.413,15.413,0,0,1,7.1-13l-1.455-2.258a18.094,18.094,0,0,0-8.333,15.256v10.041h40.277V220.771A18.089,18.089,0,0,0,108.135,205.516Z" transform="translate(-54.71 -147.573)"/><path class="b" d="M94.8,124.346a14.822,14.822,0,1,0,14.822-14.822A14.838,14.838,0,0,0,94.8,124.346Zm26.959,0a12.137,12.137,0,1,1-12.137-12.137A12.152,12.152,0,0,1,121.755,124.346Z" transform="translate(-68.07 -78.645)"/><path class="b" d="M36.772,112.194a12.133,12.133,0,1,1,6.052-19.337l2.08-1.7a14.837,14.837,0,1,0-7.4,23.619Z" transform="translate(-13.361 -61.547)"/><path class="b" d="M2.686,196.96a15.413,15.413,0,0,1,7.1-13L8.334,181.7A18.1,18.1,0,0,0,0,196.96V207H17.454v-2.685H2.686Z" transform="translate(-0.001 -130.475)"/><path class="b" d="M209.156,100.537a14.82,14.82,0,0,0-26.3-9.379l2.08,1.7a12.15,12.15,0,1,1,6.052,19.337l-.74,2.58a14.79,14.79,0,0,0,18.9-14.24Z" transform="translate(-131.304 -61.549)"/><path class="b" d="M239.035,181.71l-1.455,2.258a15.413,15.413,0,0,1,7.1,13v7.356H228.572v2.685h18.8V196.964A18.09,18.09,0,0,0,239.035,181.71Z" transform="translate(-164.129 -130.479)"/></g></g></svg>