<svg xmlns="http://www.w3.org/2000/svg" width="38.903" height="36.799" viewBox="0 0 38.903 36.799"><g transform="translate(0 -11.472)"><g transform="translate(0 11.472)"><path d="M34.577,32.724a1.083,1.083,0,0,0-1.083,1.083V53.583a3.8,3.8,0,0,1-3.79,3.79H5.956a3.8,3.8,0,0,1-3.79-3.79V29.836a3.8,3.8,0,0,1,3.79-3.79H29.7a1.083,1.083,0,1,0,0-2.166H5.956A5.964,5.964,0,0,0,0,29.835V53.583a5.964,5.964,0,0,0,5.956,5.956H29.7a5.963,5.963,0,0,0,5.957-5.956V33.807A1.083,1.083,0,0,0,34.577,32.724Z" transform="translate(0 -22.741)"/><path d="M117.851,11.789a1.082,1.082,0,0,0-1.531,0L94.559,33.55l-5.439-5.439a1.083,1.083,0,0,0-1.531,1.531l6.206,6.2a1.083,1.083,0,0,0,1.531,0s0,0,0,0l22.525-22.525A1.082,1.082,0,0,0,117.851,11.789Z" transform="translate(-79.266 -11.472)"/></g></g></svg>