<svg xmlns="http://www.w3.org/2000/svg" width="67.299" height="67.299" viewBox="0 0 67.299 67.299"><defs><style>.a{mix-blend-mode:darken;isolation:isolate;}.b{fill:#f9ba48;}.c{fill:#333;}</style></defs><g class="a"><rect class="b" width="34.735" height="23.88" transform="translate(4.342 13.026)"/><path class="c" d="M0,0V67.3H67.3V0ZM65.128,2.171V8.684H2.171V2.171ZM2.171,65.128V10.855H65.128V65.128Z"/><circle class="c" cx="1.085" cy="1.085" r="1.085" transform="translate(4.342 4.342)"/><circle class="c" cx="1.085" cy="1.085" r="1.085" transform="translate(7.598 4.342)"/><circle class="c" cx="1.085" cy="1.085" r="1.085" transform="translate(10.855 4.342)"/><path class="c" d="M76.19,82.267V94.692L87.062,88.48Zm2.171,3.743,4.324,2.47-4.324,2.47Z" transform="translate(-58.823 -63.514)"/><rect class="c" width="21.709" height="2.171" transform="translate(41.247 13.026)"/><rect class="c" width="21.709" height="2.171" transform="translate(41.247 18.453)"/><rect class="c" width="21.709" height="2.171" transform="translate(41.247 23.88)"/><rect class="c" width="21.709" height="2.171" transform="translate(41.247 29.307)"/><rect class="c" width="21.709" height="2.171" transform="translate(41.247 34.735)"/><rect class="c" width="58.615" height="2.171" transform="translate(4.342 40.162)"/><path class="c" d="M36.415,200H19.048v11.94H36.415Zm-2.171,9.769H21.219v-7.6H34.244S34.244,209.769,34.244,209.769Z" transform="translate(-14.706 -154.411)"/><rect class="c" width="58.615" height="2.171" transform="translate(4.342 60.786)"/><path class="c" d="M109.524,200v11.94h17.367V200Zm15.2,9.769H111.695v-7.6H124.72Z" transform="translate(-84.558 -154.411)"/><path class="c" d="M200,211.94h17.367V200H200Zm2.171-9.769H215.2v7.6H202.171v-7.6Z" transform="translate(-154.411 -154.411)"/></g></svg>