<svg xmlns="http://www.w3.org/2000/svg" xmlns:xlink="http://www.w3.org/1999/xlink" width="104.255" height="104.255" viewBox="0 0 104.255 104.255"><defs><style>.a{fill:#14b0bf;}.b{clip-path:url(#a);}.c{fill:#f1c9a5;}.d{fill:#e4b692;}.e{fill:#ddac8c;opacity:0.1;}.f{fill:#0d313d;}.g{fill:#f1f2f2;}.h{fill:#2b5770;}.i{fill:#fff;}.j{fill:#262421;}</style><clipPath id="a"><circle cx="52.128" cy="52.128" r="52.128"/></clipPath></defs><g transform="translate(-0.001)"><circle class="a" cx="52.128" cy="52.128" r="52.128" transform="translate(0.001 0)"/><g transform="translate(0.001 0)"><g class="b"><g transform="translate(22.602 29.219)"><path class="c" d="M85.877,112.917c-3.36-6.361-24.964-10.353-24.964-10.353s-21.6,3.992-24.964,10.353c-2.484,8.827-4.561,20.044-4.561,20.044H90.438S89.035,120.934,85.877,112.917Z" transform="translate(-31.387 -57.923)"/><path class="d" d="M72.387,102.564s21.6,3.992,24.964,10.353c3.159,8.017,4.561,20.044,4.561,20.044H72.387Z" transform="translate(-42.861 -57.923)"/><rect class="c" width="11.763" height="19.686" transform="translate(23.644 31.709)"/><rect class="d" width="5.881" height="19.686" transform="translate(29.526 31.709)"/><path class="e" d="M64.22,93.728c1.058,3.037,5.327,4.777,8.462,4.777a10.573,10.573,0,0,0,3.3-.538V84.606H64.22Z" transform="translate(-40.576 -52.897)"/><path class="c" d="M81.633,59.861c0-12.3-6.771-19.287-15.123-19.287S51.387,47.566,51.387,59.861c0,16.539,6.771,22.264,15.123,22.264S81.633,75.711,81.633,59.861Z" transform="translate(-36.984 -40.574)"/><path class="d" d="M88.558,74.464c-2.742-.287-4.592-3.241-4.129-6.594s3.055-5.847,5.8-5.562,4.588,3.238,4.126,6.594S91.3,74.748,88.558,74.464Z" transform="translate(-46.212 -46.65)"/><path class="c" d="M46.657,68.9c-.463-3.356,1.386-6.308,4.124-6.594s5.341,2.206,5.8,5.562-1.39,6.307-4.129,6.594S47.117,72.259,46.657,68.9Z" transform="translate(-35.641 -46.651)"/><path class="d" d="M87.51,59.861c0-12.3-6.771-19.287-15.123-19.287V82.126C80.738,82.126,87.51,75.711,87.51,59.861Z" transform="translate(-42.861 -40.574)"/></g><path class="f" d="M85.876,113.678c-1.963-3.714-10.141-6.619-16.61-8.394l-8.354,28.437-8.354-28.437c-6.469,1.775-14.648,4.679-16.611,8.394-2.484,8.827-4.561,20.044-4.561,20.044H90.437S89.034,121.7,85.876,113.678Z" transform="translate(-8.785 -29.465)"/><path class="g" d="M60.413,105.284l8.623,28.437,8.386-28.437-8.386,9.549Z" transform="translate(-16.908 -29.465)"/><path class="h" d="M72.387,133.721,85.154,119.5l-4.381-1.659,7.621-10.352-7.406-2.207Z" transform="translate(-20.259 -29.465)"/><path class="h" d="M66.166,133.721,53.4,119.5l4.381-1.659-7.621-10.352,7.406-2.207Z" transform="translate(-14.038 -29.465)"/><path class="i" d="M57.359,116.588l6.537-6.076,4.274,4.067-5.871-10.2-3.586.276C58.456,108.623,57.359,116.588,57.359,116.588Z" transform="translate(-16.053 -29.213)"/><path class="i" d="M83.183,116.588l-6.537-6.076-4.275,4.067,5.871-10.2,3.586.276C82.086,108.623,83.183,116.588,83.183,116.588Z" transform="translate(-20.255 -29.213)"/><path class="j" d="M82.715,55.72s-2.7-2.034-3.851,3.937c.375-5.611.1-13.352-4.451-14.769-2.53,4.552-12.543,7.484-19.119,5.866.5,5.16-1.011,9.409-2.731,10.521.1-4.148.1-6.678-2.531-5.868-.707-8.7,4.057-19.727,16.9-19.727S84.031,44.389,82.715,55.72Z" transform="translate(-13.984 -9.986)"/></g></g></g></svg>