<svg xmlns="http://www.w3.org/2000/svg" xmlns:xlink="http://www.w3.org/1999/xlink" width="100.184" height="100.184" viewBox="0 0 100.184 100.184"><defs><style>.a{fill:#13aec0;}.b{clip-path:url(#a);}.c{fill:#f1c9a5;}.d{fill:#e4b692;}.e{fill:#ddac8c;opacity:0.1;}.f{fill:#265a68;}.g{fill:#2d5972;}</style><clipPath id="a"><circle cx="50.092" cy="50.092" r="50.092"/></clipPath></defs><circle class="a" cx="50.092" cy="50.092" r="50.092" transform="translate(0 0)"/><g transform="translate(0 0)"><g class="b"><path class="c" d="M83.749,112.512c-3.229-6.113-23.989-9.948-23.989-9.948S39,106.4,35.77,112.512c-2.387,8.483-4.383,19.261-4.383,19.261H88.132S86.783,120.217,83.749,112.512Z" transform="translate(-9.668 -31.589)"/><path class="d" d="M72.387,102.564s20.76,3.836,23.989,9.948c3.035,7.7,4.383,19.261,4.383,19.261H72.387Z" transform="translate(-22.295 -31.589)"/><rect class="c" width="11.303" height="18.917" transform="translate(44.44 58.549)"/><rect class="d" width="5.652" height="18.917" transform="translate(50.092 58.549)"/><path class="e" d="M64.22,93.372c1.017,2.918,5.119,4.591,8.132,4.591a10.16,10.16,0,0,0,3.171-.517V84.606H64.22Z" transform="translate(-19.78 -26.058)"/><path class="c" d="M80.451,59.108c0-11.815-6.506-18.534-14.532-18.534S51.387,47.293,51.387,59.108C51.387,75,57.893,80.5,65.919,80.5S80.451,74.339,80.451,59.108Z" transform="translate(-15.827 -12.496)"/><path class="d" d="M88.394,73.989c-2.634-.276-4.413-3.114-3.967-6.336S87.362,62.033,90,62.308s4.409,3.111,3.965,6.336S91.028,74.261,88.394,73.989Z" transform="translate(-25.982 -19.183)"/><path class="c" d="M46.655,68.645c-.445-3.225,1.331-6.062,3.963-6.336s5.132,2.12,5.574,5.345-1.336,6.061-3.968,6.336S47.1,71.869,46.655,68.645Z" transform="translate(-14.349 -19.184)"/><path class="d" d="M86.919,59.108c0-11.815-6.506-18.534-14.532-18.534V80.5C80.412,80.5,86.919,74.339,86.919,59.108Z" transform="translate(-22.295 -12.496)"/><path class="f" d="M50.7,62.83s2-3.841,2.851-11.224c6.029,5.729,13.133,6.646,22.522,0,.231,5.383,1.805,8.741,3.651,11.224,1.136-9.3,3.644-13.886,2.8-18.774-6.258,1.035-8.461-4.108-17.849-4.108S53.2,44.9,47.368,44.453C47.369,50.261,50.149,53.356,50.7,62.83Z" transform="translate(-14.589 -12.304)"/><path class="g" d="M83.749,113.142c-2.069-3.917-11.332-6.9-17.722-8.533a6.285,6.285,0,0,1-12.534,0c-6.391,1.637-15.653,4.616-17.722,8.533-2.387,8.483-4.383,19.261-4.383,19.261H88.132S86.783,120.846,83.749,113.142Z" transform="translate(-9.668 -32.218)"/></g></g></svg>