<svg xmlns="http://www.w3.org/2000/svg" xmlns:xlink="http://www.w3.org/1999/xlink" width="103.772" height="103.772" viewBox="0 0 103.772 103.772"><defs><style>.a{fill:#fdc20e;}.b{clip-path:url(#a);}.c{fill:#f1c9a5;}.d{fill:#e4b692;}.e{fill:#ddac8c;opacity:0.1;}.f{fill:#3595bb;}.g{fill:#262421;}.h{fill:#fff;}.i{fill:#27aae1;}</style><clipPath id="a"><circle cx="51.886" cy="51.886" r="51.886"/></clipPath></defs><g transform="translate(-0.001)"><circle class="a" cx="51.886" cy="51.886" r="51.886" transform="translate(0.001 0)"/><g transform="translate(0.001 0)"><g class="b"><g transform="translate(22.497 29.083)"><path class="c" d="M85.624,112.869c-3.345-6.331-24.848-10.3-24.848-10.3s-21.5,3.973-24.848,10.3c-2.472,8.786-4.54,19.951-4.54,19.951H90.164S88.767,120.849,85.624,112.869Z" transform="translate(-31.387 -58.13)"/><path class="d" d="M72.387,102.564s21.5,3.973,24.848,10.3c3.144,7.98,4.54,19.951,4.54,19.951H72.387Z" transform="translate(-42.998 -58.13)"/><rect class="c" width="11.708" height="19.594" transform="translate(23.535 31.562)"/><rect class="d" width="5.854" height="19.594" transform="translate(29.389 31.562)"/><path class="e" d="M64.22,93.686c1.053,3.023,5.3,4.755,8.423,4.755a10.524,10.524,0,0,0,3.285-.535v-13.3H64.22Z" transform="translate(-40.685 -53.044)"/><path class="c" d="M81.492,59.772c0-12.239-6.739-19.2-15.053-19.2s-15.053,6.959-15.053,19.2c0,16.462,6.739,22.161,15.053,22.161S81.492,75.548,81.492,59.772Z" transform="translate(-37.051 -40.574)"/><path class="d" d="M88.539,74.408c-2.729-.286-4.571-3.226-4.109-6.563s3.041-5.82,5.771-5.537,4.567,3.223,4.107,6.563S91.267,74.69,88.539,74.408Z" transform="translate(-46.389 -46.723)"/><path class="c" d="M46.657,68.872c-.461-3.34,1.379-6.279,4.105-6.563s5.316,2.2,5.774,5.537-1.383,6.278-4.11,6.563S47.114,72.212,46.657,68.872Z" transform="translate(-35.692 -46.723)"/><path class="d" d="M87.44,59.772c0-12.239-6.739-19.2-15.053-19.2V81.933C80.7,81.933,87.44,75.548,87.44,59.772Z" transform="translate(-42.998 -40.574)"/></g><path class="f" d="M85.624,113.639c-1.954-3.7-10.094-6.588-16.533-8.355l-8.316,9.5-8.316-9.5c-6.439,1.767-14.58,4.658-16.533,8.355-2.472,8.786-4.54,19.951-4.54,19.951H90.164S88.767,121.619,85.624,113.639Z" transform="translate(-8.89 -29.817)"/><path class="g" d="M53.447,65.464S64.08,58.207,65.332,54.2c-.125,3.628,0,6.881,0,6.881s10.384-10.258,9.383-18.64c-11.76-6.256-20.892,1-23.02,4.378S49.067,59.584,53.447,65.464Z" transform="translate(-14.191 -11.324)"/><path class="g" d="M82.342,46.793s4.88,5.881,5.881,17.641c3.5-5.13,7.256-20.018-4.379-21.018A24.326,24.326,0,0,0,82.342,46.793Z" transform="translate(-23.32 -12.296)"/><path class="h" d="M83.133,116.553l-6.506-6.048-4.255,4.048,7.071-10.1a3.96,3.96,0,0,1,3.126,2.767C82.826,111.173,83.133,116.553,83.133,116.553Z" transform="translate(-20.497 -29.583)"/><path class="i" d="M69.179,136.484h2.3v-18.8l-2.3-2.178Z" transform="translate(-19.592 -32.711)"/><path class="h" d="M57.359,116.553l6.506-6.048,4.255,4.048-7.071-10.1a3.96,3.96,0,0,0-3.126,2.767C57.667,111.173,57.359,116.553,57.359,116.553Z" transform="translate(-16.245 -29.583)"/></g></g></g></svg>