<svg xmlns="http://www.w3.org/2000/svg" xmlns:xlink="http://www.w3.org/1999/xlink" width="100.184" height="100.184" viewBox="0 0 100.184 100.184"><defs><style>.a{fill:#8dc5d6;}.b{clip-path:url(#a);}.c{fill:#2e576d;}.d{fill:#f1c9a5;}.e{fill:#e4b692;}.f{fill:#ddac8c;opacity:0.1;}.g{fill:#fa582a;}</style><clipPath id="a"><circle cx="50.092" cy="50.092" r="50.092"/></clipPath></defs><circle class="a" cx="50.092" cy="50.092" r="50.092" transform="translate(0 0)"/><g transform="translate(0 0)"><g class="b"><path class="c" d="M43.373,69.324c0,8.171-4.484,8.382-4.165,13.793.355,5.992,5.039,6.006,5.039,10.126s-4.307,8.736-.491,13.171H62.17V56.445Z" transform="translate(-12.072 -17.384)"/><path class="c" d="M91.172,68.933c0,8.171,4.484,8.382,4.165,13.793-.354,5.992-5.038,6.006-5.038,10.126s4.306,8.736.491,13.171H72.375V56.055Z" transform="translate(-22.291 -17.264)"/><g transform="translate(21.719 22.762)"><ellipse class="c" cx="20.508" cy="20.641" rx="20.508" ry="20.641" transform="translate(7.865)"/><path class="d" d="M83.749,112.512c-3.229-6.113-23.989-9.948-23.989-9.948S39,106.4,35.77,112.512c-2.387,8.483-4.383,19.261-4.383,19.261H88.132S86.783,120.217,83.749,112.512Z" transform="translate(-31.387 -54.351)"/><path class="e" d="M72.387,102.564s20.76,3.836,23.989,9.948c3.035,7.7,4.383,19.261,4.383,19.261H72.387Z" transform="translate(-44.015 -54.351)"/><rect class="d" width="11.303" height="18.917" transform="translate(22.721 35.786)"/><rect class="e" width="5.652" height="18.917" transform="translate(28.372 35.786)"/><path class="f" d="M64.22,93.372c1.017,2.918,5.119,4.591,8.132,4.591a10.156,10.156,0,0,0,3.171-.517V84.606H64.22Z" transform="translate(-41.499 -48.82)"/><path class="d" d="M80.451,59.108c0-11.815-6.506-18.534-14.532-18.534S51.387,47.293,51.387,59.108,57.893,80.5,65.919,80.5,80.451,70.924,80.451,59.108Z" transform="translate(-37.547 -35.259)"/><path class="e" d="M88.394,73.659c-2.634-.293-4.413-3.31-3.967-6.735S87.363,60.953,90,61.244s4.409,3.307,3.965,6.735S91.029,73.949,88.394,73.659Z" transform="translate(-47.702 -41.618)"/><path class="d" d="M46.655,67.979c-.445-3.428,1.331-6.443,3.963-6.735s5.132,2.253,5.574,5.681-1.336,6.442-3.968,6.735S47.1,71.406,46.655,67.979Z" transform="translate(-36.068 -41.618)"/><path class="e" d="M86.919,59.108c0-11.815-6.506-18.534-14.532-18.534V80.5C80.412,80.5,86.919,70.924,86.919,59.108Z" transform="translate(-44.015 -35.259)"/></g><path class="c" d="M81.123,57c0-.035,0-.069,0-.1,0-9.166-6.205-18.838-14.891-18.838S49.674,47.73,49.674,56.9c0,.035,0,.069,0,.1H81.123Z" transform="translate(-15.3 -11.721)"/><path class="g" d="M88.132,132.755s-1.348-11.557-4.383-19.261c-1.771-3.353-8.812-6.018-14.813-7.743l-9.2,7.219-9.567-7.1c-5.906,1.728-12.671,4.349-14.4,7.625-2.387,8.483-4.383,19.261-4.383,19.261H88.132Z" transform="translate(-9.668 -32.57)"/></g></g></svg>