<svg xmlns="http://www.w3.org/2000/svg" xmlns:xlink="http://www.w3.org/1999/xlink" width="100.184" height="100.184" viewBox="0 0 100.184 100.184"><defs><style>.a{fill:#2b5971;}.b{clip-path:url(#a);}.c{fill:#583a2f;}.d{fill:#f1c9a5;}.e{fill:#e4b692;}.f{fill:#ddac8c;opacity:0.1;}.g{fill:#c51c39;}.h,.i{fill:none;stroke:#fff;stroke-linecap:round;stroke-linejoin:round;stroke-width:1.431px;}.i{stroke-dasharray:0.048 1.918;}</style><clipPath id="a"><circle cx="50.092" cy="50.092" r="50.092"/></clipPath></defs><circle class="a" cx="50.092" cy="50.092" r="50.092" transform="translate(0 0)"/><g transform="translate(0 0)"><g class="b"><path class="c" d="M83.536,52.862C83.536,41.3,74.162,29.1,62.6,29.1S41.662,41.3,41.662,52.862a20.937,20.937,0,1,0,41.874,0Z" transform="translate(-12.832 -8.962)"/><g transform="translate(21.719 28.078)"><path class="c" d="M52.514,101.62H79.1s2.713-28.961,2.367-40.431-11.3-18.506-21.106-18.506S40.4,86.92,52.514,101.62Z" transform="translate(-36.191 -41.224)"/><path class="d" d="M83.749,106.982c-2.136-4.044-11.943-7.09-18.338-8.69V84.606h-11.3V98.292c-6.395,1.6-16.2,4.645-18.338,8.69-2.387,8.483-4.383,19.261-4.383,19.261H88.132S86.783,114.686,83.749,106.982Z" transform="translate(-31.387 -54.135)"/><path class="e" d="M96.376,106.982c-2.136-4.044-11.943-7.09-18.338-8.69V84.606H72.387v41.636h28.372S99.411,114.686,96.376,106.982Z" transform="translate(-44.015 -54.135)"/><path class="f" d="M64.22,93.372c1.017,2.918,5.119,4.591,8.132,4.591a10.16,10.16,0,0,0,3.171-.517V84.606H64.22Z" transform="translate(-41.499 -54.135)"/><path class="d" d="M80.451,59.108c0-11.815-6.506-18.534-14.532-18.534S51.387,47.293,51.387,59.108,57.893,80.5,65.919,80.5,80.451,70.924,80.451,59.108Z" transform="translate(-37.547 -40.574)"/><path class="e" d="M88.394,74.408c-2.634-.253-4.413-2.865-3.967-5.829S87.362,63.41,90,63.662s4.409,2.863,3.965,5.83S91.028,74.659,88.394,74.408Z" transform="translate(-47.701 -47.679)"/><path class="d" d="M45.792,69.492c-.445-2.967,1.331-5.577,3.963-5.83s5.132,1.95,5.574,4.917-1.336,5.576-3.968,5.829S46.234,72.458,45.792,69.492Z" transform="translate(-35.802 -47.679)"/><path class="e" d="M86.919,59.108c0-11.815-6.506-18.534-14.532-18.534V80.5C80.412,80.5,86.919,70.924,86.919,59.108Z" transform="translate(-44.015 -40.574)"/><path class="g" d="M65.411,103.01V99.923c-1.827.157-3.716.24-5.652.24s-3.825-.083-5.652-.24v3.087c-6.395,1.6-16.2,4.645-18.338,8.69-2.387,8.483-4.383,19.261-4.383,19.261H88.132S86.784,119.4,83.749,111.7C81.613,107.656,71.806,104.609,65.411,103.01Z" transform="translate(-31.387 -58.853)"/></g><g transform="translate(43.163 72.438)"><path class="h" d="M62.374,104.678v.017" transform="translate(-62.374 -104.678)"/><path class="i" d="M62.561,106.313a6.93,6.93,0,0,0,13.7-.667" transform="translate(-62.432 -104.976)"/><path class="h" d="M82.4,104.7v-.017" transform="translate(-68.542 -104.678)"/></g><path class="c" d="M39.679,63.438s-2.552,42.335-4.455,56.285H49.756L46.8,80.439" transform="translate(-10.849 -19.538)"/><path class="c" d="M97.686,63.438s2.552,42.335,4.455,56.285H87.609L89.533,82.7" transform="translate(-26.983 -19.538)"/><path class="c" d="M66.224,37.149c-8.685,0-16.561,9.672-16.561,18.838,0,.035,0,.069,0,.1h8.2l.776-6.117v6.117h8.3V49.974L68.4,56.091h5.269V51.012l1.264,5.079h6.176c0-.035,0-.069,0-.1C81.114,46.821,74.909,37.149,66.224,37.149Z" transform="translate(-15.296 -11.441)"/></g></g></svg>