<svg xmlns="http://www.w3.org/2000/svg" xmlns:xlink="http://www.w3.org/1999/xlink" width="100.184" height="100.184" viewBox="0 0 100.184 100.184"><defs><style>.a{fill:#2e5871;}.b{clip-path:url(#a);}.c{fill:#f1c9a5;}.d{fill:#e4b692;}.e{fill:#ddac8c;opacity:0.1;}.f{fill:#fff;}.g{fill:#fb6020;}.h{fill:#915f2c;}</style><clipPath id="a"><circle cx="50.092" cy="50.092" r="50.092"/></clipPath></defs><circle class="a" cx="50.092" cy="50.092" r="50.092" transform="translate(0 0)"/><g transform="translate(0 0)"><g class="b"><g transform="translate(21.719 28.078)"><path class="c" d="M83.749,112.512c-3.229-6.113-23.989-9.948-23.989-9.948S39,106.4,35.77,112.512c-2.387,8.483-4.383,19.261-4.383,19.261H88.132S86.783,120.217,83.749,112.512Z" transform="translate(-31.386 -59.666)"/><path class="d" d="M72.387,102.564s20.76,3.836,23.989,9.948c3.035,7.7,4.383,19.261,4.383,19.261H72.387Z" transform="translate(-44.014 -59.666)"/><rect class="c" width="11.303" height="18.917" transform="translate(22.722 30.471)"/><rect class="d" width="5.652" height="18.917" transform="translate(28.373 30.471)"/><path class="e" d="M64.22,93.372c1.017,2.918,5.119,4.591,8.132,4.591a10.16,10.16,0,0,0,3.171-.517V84.606H64.22Z" transform="translate(-41.498 -54.135)"/><path class="f" d="M83.748,113.35c-1.886-3.569-9.745-6.36-15.961-8.066a8.041,8.041,0,0,1-16.056,0c-6.216,1.706-14.076,4.5-15.962,8.066-2.387,8.483-4.383,19.261-4.383,19.261H88.131S86.783,121.054,83.748,113.35Z" transform="translate(-31.386 -60.504)"/><path class="c" d="M80.451,59.108c0-11.815-6.506-18.534-14.532-18.534S51.387,47.293,51.387,59.108c0,4.95,1.514,15.91,4.1,18.144,1.775,1.577,7.569,4.279,10.4,4.279h.06c2.834,0,8.629-2.7,10.4-4.279C79.04,74.413,80.451,63.652,80.451,59.108Z" transform="translate(-37.546 -40.574)"/><path class="d" d="M72.388,81.529h.03c2.834,0,8.629-2.7,10.4-4.279,2.688-2.839,4.1-13.6,4.1-18.144,0-11.815-6.506-18.534-14.532-18.534V81.529Z" transform="translate(-44.014 -40.574)"/><path class="d" d="M88.394,73.989c-2.634-.275-4.413-3.114-3.967-6.336S87.363,62.033,90,62.308s4.409,3.111,3.965,6.336S91.029,74.261,88.394,73.989Z" transform="translate(-47.701 -47.261)"/><path class="c" d="M46.655,68.645c-.445-3.225,1.331-6.062,3.963-6.336s5.132,2.12,5.574,5.345-1.336,6.061-3.968,6.336S47.1,71.869,46.655,68.645Z" transform="translate(-36.068 -47.261)"/><path class="g" d="M35.77,113.792c-2.387,8.483-4.383,19.261-4.383,19.261H51.993a139.557,139.557,0,0,1-3.632-26.333C42.949,108.433,37.327,110.847,35.77,113.792Z" transform="translate(-31.386 -60.946)"/><path class="g" d="M99.833,113.792c3.232,7.981,4.383,19.261,4.383,19.261H83.609a139.557,139.557,0,0,0,3.632-26.333C92.654,108.433,98.276,110.847,99.833,113.792Z" transform="translate(-47.47 -60.946)"/></g><path class="h" d="M52.672,78.725s2.122,7.149,4.421,8.363h1.857l2.3-3.256,5.039-1.4V93.281H59.744L53.2,87.408Z" transform="translate(-16.223 -24.246)"/><path class="h" d="M86,78.725s-2.122,7.149-4.421,8.363H79.723l-2.3-3.256-5.039-1.4V93.281h6.542l6.541-5.874Z" transform="translate(-22.295 -24.246)"/><path class="f" d="M73.65,88.555a2.222,2.222,0,0,0-2.365-1.54,2.449,2.449,0,0,0-2.365,1.54Z" transform="translate(-21.228 -26.8)"/><path class="h" d="M51.138,54.686a6.373,6.373,0,0,1,3.17,1.847C54.089,54,53.6,45.6,56.675,43.487s4.51.091,8.973.091V37.431H58.394c-1.891,0-7.89.9-7.89,6.568A95.931,95.931,0,0,0,51.138,54.686Z" transform="translate(-15.555 -11.528)"/><path class="h" d="M86.9,54.686a6.373,6.373,0,0,0-3.17,1.847c.219-2.531.706-10.937-2.367-13.046s-4.51.091-8.973.091V37.431H79.64c1.891,0,7.89.9,7.89,6.568A95.931,95.931,0,0,1,86.9,54.686Z" transform="translate(-22.295 -11.528)"/></g></g></svg>