<svg xmlns="http://www.w3.org/2000/svg" xmlns:xlink="http://www.w3.org/1999/xlink" width="100.184" height="100.184" viewBox="0 0 100.184 100.184"><defs><style>.a{fill:#f5c002;}.b{clip-path:url(#a);}.c{fill:#f1c9a5;}.d{fill:#e4b692;}.e{fill:#ddac8c;opacity:0.1;}.f{fill:#303030;}.g{fill:#fb621e;}.h,.i{fill:#e53d0c;}.h{opacity:0.2;}.j{fill:#fff;}</style><clipPath id="a"><circle cx="50.092" cy="50.092" r="50.092"/></clipPath></defs><circle class="a" cx="50.092" cy="50.092" r="50.092" transform="translate(0 0)"/><g transform="translate(0 0)"><g class="b"><g transform="translate(21.719 28.078)"><path class="c" d="M83.749,112.512c-3.229-6.113-23.989-9.948-23.989-9.948S39,106.4,35.77,112.512c-2.387,8.483-4.383,19.261-4.383,19.261H88.132S86.783,120.217,83.749,112.512Z" transform="translate(-31.387 -59.666)"/><path class="d" d="M72.387,102.564s20.76,3.836,23.989,9.948c3.035,7.7,4.383,19.261,4.383,19.261H72.387Z" transform="translate(-44.015 -59.666)"/><rect class="c" width="11.303" height="18.917" transform="translate(22.721 30.471)"/><rect class="d" width="5.652" height="18.917" transform="translate(28.372 30.471)"/><path class="e" d="M64.22,93.372c1.017,2.918,5.119,4.591,8.132,4.591a10.16,10.16,0,0,0,3.171-.517V84.606H64.22Z" transform="translate(-41.499 -54.135)"/><path class="c" d="M80.451,59.108c0-11.815-6.506-18.534-14.532-18.534S51.387,47.293,51.387,59.108C51.387,75,57.893,80.5,65.919,80.5S80.451,74.339,80.451,59.108Z" transform="translate(-37.547 -40.574)"/><path class="d" d="M88.394,73.989c-2.634-.275-4.413-3.114-3.967-6.336S87.363,62.033,90,62.308s4.409,3.111,3.965,6.336S91.029,74.261,88.394,73.989Z" transform="translate(-47.702 -47.261)"/><path class="c" d="M46.655,68.645c-.445-3.225,1.331-6.062,3.963-6.336s5.132,2.12,5.574,5.345-1.336,6.061-3.968,6.336S47.1,71.869,46.655,68.645Z" transform="translate(-36.068 -47.261)"/><path class="d" d="M86.919,59.108c0-11.815-6.506-18.534-14.532-18.534V80.5C80.412,80.5,86.919,74.339,86.919,59.108Z" transform="translate(-44.015 -40.574)"/></g><path class="f" d="M79.34,79.784c-.782,2.2-2.1,4.84-4.494,4.84-2.987,0-5.123-2.428-8.549-2.428h-.058c-3.425,0-5.561,2.428-8.549,2.428-2.39,0-3.711-2.642-4.493-4.84L52.52,75.55v5.066s1.136,5.967,3.315,7.408C57.61,89.6,63.4,92.3,66.238,92.3h.06c2.834,0,8.629-2.7,10.4-4.279,2.179-1.441,3.315-7.408,3.315-7.408V75.55Z" transform="translate(-16.176 -23.269)"/><path class="f" d="M62.218,41.847s2.7,10.925,17.738,16.451a14.821,14.821,0,0,1-1.671-5.4,26.3,26.3,0,0,0,6.426,4.627C86.9,53.158,89.467,46.6,83.683,43S64.146,32.977,62.218,41.847Z" transform="translate(-19.163 -11.508)"/><path class="f" d="M53.352,59.384s1.116-12.472,5.763-15.231c-3.964-1.729-10,3.535-9.362,6.748S53.352,59.384,53.352,59.384Z" transform="translate(-15.309 -13.494)"/><path class="g" d="M83.749,113.35c-1.886-3.569-9.745-6.36-15.961-8.066a8.041,8.041,0,0,1-16.055,0c-6.216,1.706-14.076,4.5-15.962,8.066-2.387,8.483-4.383,19.261-4.383,19.261H88.132S86.783,121.054,83.749,113.35Z" transform="translate(-9.668 -32.426)"/><path class="h" d="M53.142,107.36a8.547,8.547,0,0,0,16.985,0c5.7,1.477,12.691,3.771,15.758,6.678q-.129-.349-.262-.688c-1.886-3.569-9.745-6.36-15.961-8.066a8.041,8.041,0,0,1-16.055,0c-6.216,1.706-14.076,4.5-15.962,8.066-.056.2-.112.4-.168.6C40.59,111.088,47.5,108.823,53.142,107.36Z" transform="translate(-11.543 -32.426)"/><path class="i" d="M57.37,105.966a10.518,10.518,0,0,0,20.784,0c-.8-.244-1.6-.471-2.364-.681a8.041,8.041,0,0,1-16.055,0C58.966,105.5,58.173,105.722,57.37,105.966Z" transform="translate(-17.67 -32.427)"/><path class="j" d="M73.7,89.971a2.222,2.222,0,0,0-2.365-1.54,2.449,2.449,0,0,0-2.365,1.54Z" transform="translate(-21.243 -27.236)"/></g></g></svg>