<svg xmlns="http://www.w3.org/2000/svg" xmlns:xlink="http://www.w3.org/1999/xlink" width="100.184" height="100.184" viewBox="0 0 100.184 100.184"><defs><style>.a{fill:#fc611f;}.b{clip-path:url(#a);}.c{fill:#a25a34;}.d{fill:#f1c9a5;}.e{fill:#e4b692;}.f{fill:#ddac8c;opacity:0.1;}.g{fill:#01561e;}.h{fill:#d1874a;}</style><clipPath id="a"><circle cx="50.092" cy="50.092" r="50.092"/></clipPath></defs><circle class="a" cx="50.092" cy="50.092" r="50.092" transform="translate(0 0)"/><g transform="translate(0 0)"><g class="b"><path class="c" d="M56.32,81.5H73.772s8.959-8.84,8.613-20.311-11.3-18.506-21.106-18.506S44.21,66.8,56.32,81.5Z" transform="translate(-15.395 -13.146)"/><path class="d" d="M83.749,112.512c-3.229-6.113-23.989-9.948-23.989-9.948S39,106.4,35.77,112.512c-2.387,8.483-4.383,19.261-4.383,19.261H88.132S86.783,120.217,83.749,112.512Z" transform="translate(-9.668 -31.589)"/><path class="e" d="M72.387,102.564s20.76,3.836,23.989,9.948c3.035,7.7,4.383,19.261,4.383,19.261H72.387Z" transform="translate(-22.295 -31.589)"/><rect class="d" width="11.303" height="18.917" transform="translate(44.44 58.548)"/><rect class="e" width="5.652" height="18.917" transform="translate(50.092 58.548)"/><path class="f" d="M64.22,93.372c1.017,2.918,5.119,4.591,8.132,4.591a10.16,10.16,0,0,0,3.171-.517V84.606H64.22Z" transform="translate(-19.78 -26.058)"/><path class="d" d="M80.451,59.108c0-11.815-6.506-18.534-14.532-18.534S51.387,47.293,51.387,59.108,57.893,80.5,65.919,80.5,80.451,70.924,80.451,59.108Z" transform="translate(-15.827 -12.496)"/><path class="e" d="M88.394,73.659c-2.634-.293-4.413-3.31-3.967-6.735S87.363,60.953,90,61.244s4.409,3.307,3.965,6.735S91.029,73.949,88.394,73.659Z" transform="translate(-25.982 -18.855)"/><path class="d" d="M46.655,67.979c-.445-3.428,1.331-6.443,3.963-6.735s5.132,2.253,5.574,5.681-1.336,6.442-3.968,6.735S47.1,71.406,46.655,67.979Z" transform="translate(-14.349 -18.855)"/><path class="e" d="M86.919,59.108c0-11.815-6.506-18.534-14.532-18.534V80.5C80.412,80.5,86.919,70.924,86.919,59.108Z" transform="translate(-22.295 -12.496)"/><path class="g" d="M83.749,116.464a5.462,5.462,0,0,0-.762-1.071c-3.523,4.638-12.591,7.94-23.227,7.94h0c-10.636,0-19.7-3.3-23.227-7.939a5.522,5.522,0,0,0-.761,1.07c-2.387,8.483-4.383,19.261-4.383,19.261H88.132S86.783,124.168,83.749,116.464Z" transform="translate(-9.668 -35.54)"/><path class="h" d="M54.594,43.018c2.412,4.353,8.458,6.834,12.82,10.1,7.637,5.726,4.185,18.385,1.538,24.194,9.6-5.578,16.633-14.937,13.1-30.1S66.473,25.594,54.006,30.972c-10.259-2.69-20.789,12.889-19.575,26.98S51.5,77.315,51.5,77.315,42.043,56.325,54.594,43.018Z" transform="translate(-10.576 -8.963)"/></g></g></svg>