<svg xmlns="http://www.w3.org/2000/svg" xmlns:xlink="http://www.w3.org/1999/xlink" width="100.184" height="100.184" viewBox="0 0 100.184 100.184"><defs><style>.a{fill:#12b5ba;}.b{clip-path:url(#a);}.c{fill:#f1c9a5;}.d{fill:#e4b692;}.e{fill:#ddac8c;opacity:0.1;}.f{fill:#0f303f;}.g{fill:#f3641e;}.h{fill:#fa582a;}.i{fill:#1594a3;}</style><clipPath id="a"><circle cx="50.092" cy="50.092" r="50.092"/></clipPath></defs><circle class="a" cx="50.092" cy="50.092" r="50.092" transform="translate(0 0)"/><g transform="translate(0 0)"><g class="b"><path class="c" d="M83.667,112.512c-3.229-6.113-23.989-9.948-23.989-9.948s-20.76,3.836-23.989,9.948C33.3,121,31.305,131.773,31.305,131.773H88.05S86.7,120.217,83.667,112.512Z" transform="translate(-9.642 -31.589)"/><path class="d" d="M72.305,102.564s20.76,3.836,23.989,9.948c3.035,7.7,4.383,19.261,4.383,19.261H72.305Z" transform="translate(-22.27 -31.589)"/><rect class="c" width="11.303" height="18.917" transform="translate(44.384 58.548)"/><rect class="d" width="5.652" height="18.917" transform="translate(50.035 58.548)"/><path class="e" d="M64.138,93.372c1.017,2.918,5.119,4.591,8.132,4.591a10.16,10.16,0,0,0,3.171-.517V84.606h-11.3Z" transform="translate(-19.754 -26.058)"/><path class="c" d="M80.369,59.108c0-11.815-6.506-18.534-14.532-18.534S51.305,47.293,51.305,59.108,57.811,80.5,65.837,80.5,80.369,70.924,80.369,59.108Z" transform="translate(-15.802 -12.496)"/><path class="d" d="M88.313,73.659c-2.634-.293-4.413-3.31-3.967-6.735s2.936-5.972,5.571-5.681,4.409,3.307,3.965,6.735S90.948,73.949,88.313,73.659Z" transform="translate(-25.957 -18.855)"/><path class="c" d="M46.573,67.979c-.445-3.428,1.331-6.443,3.962-6.735s5.132,2.253,5.574,5.681-1.336,6.442-3.968,6.735S47.015,71.406,46.573,67.979Z" transform="translate(-14.323 -18.855)"/><path class="d" d="M86.837,59.108c0-11.815-6.506-18.534-14.532-18.534V80.5C80.331,80.5,86.837,70.924,86.837,59.108Z" transform="translate(-22.27 -12.496)"/><path class="f" d="M55.951,73.018s-6.268-5.108-4.875-11.838,4.875-7.891,4.875-10.91c5.8,6.964,10.911,11.837,20.195,9.285,2.785,1.626-.7,9.984-4.875,14.393,11.839-6.5,25.534-30.408-3.018-39.694S31.578,71.626,55.951,73.018Z" transform="translate(-12.79 -10.173)"/><path class="g" d="M65.521,48.771a15.243,15.243,0,0,1,15,12.559,15.241,15.241,0,1,0-30,0A15.24,15.24,0,0,1,65.521,48.771Z" transform="translate(-15.487 -13.369)"/><path class="h" d="M56.287,105.879c2.033,1.089,6.787,3.36,11.084,3.36,5.652,0,13.041-2.768,13.041-2.768l-1.017-.293c-2.312-.754-4.609-1.38-6.572-1.867-5.618,3.367-11.1.053-11.1.049C60.072,104.773,58.2,105.283,56.287,105.879Z" transform="translate(-17.336 -32.127)"/><path class="i" d="M83.667,114.555c-1.092-2.067-4.191-3.872-7.811-5.358a16.817,16.817,0,0,1-32.357,0c-3.62,1.486-6.719,3.291-7.811,5.358-2.387,8.483-4.383,19.261-4.383,19.261H88.05S86.7,122.259,83.667,114.555Z" transform="translate(-9.642 -33.631)"/><path class="h" d="M107.7,98.772c-3.114-1.11-8.074,1.312-11.332,1-3.56-.342-5.488,2.077-7.677,1.639-4.21-.844-4.6.682-4.6.682s-1.018-2.066,3.192-1.392,7.428-1.338,8.39-2.635c1.454-1.961,6.315-1.5,6.315-1.5L99.45,93.625a5.356,5.356,0,0,0-5.882,2.365c-1.441,2.48-2.768,2.768-6.813,2.306a7.846,7.846,0,0,0-6.572,2.684l7.647,2.226a12.615,12.615,0,0,0,3.193.389c1.615-.042,3.3-1.705,6.682-1.449,3.619.274,6.906-1.485,11.164.107Z" transform="translate(-24.696 -28.796)"/></g></g></svg>